<svg width="96" height="96" viewBox="0 0 96 96" fill="none" xmlns="http://www.w3.org/2000/svg">
  <rect x="12" y="12" width="72" height="72" rx="18" fill="#F6F5F2"/>
  <rect x="25" y="25" width="46" height="46" rx="10" stroke="#111111" stroke-width="4"/>
  <circle cx="48" cy="48" r="6" fill="#111111"/>
  <path d="M48 48C39 45 34 42 30 38C33 33 37 32 41 33C46 34 47 39 48 48Z" fill="#111111"/>
  <path d="M48 48C57 45 62 42 66 38C63 33 59 32 55 33C50 34 49 39 48 48Z" fill="#111111"/>
  <path d="M48 48C46 57 46 62 48 66C54 65 57 62 58 58C59 54 56 50 48 48Z" fill="#111111"/>
</svg>
