<svg width="160" height="160" viewBox="0 0 160 160" fill="none" xmlns="http://www.w3.org/2000/svg">
  <rect width="160" height="160" rx="28" fill="#F6F4EF"/>
  <rect x="28" y="28" width="104" height="104" rx="12" fill="#FCFBF8" stroke="#D8D3C8"/>
  <circle cx="80" cy="80" r="34" fill="#D9D7D2"/>
  <circle cx="80" cy="80" r="12" fill="#F7F6F3" stroke="#D0CCC3"/>
  <path d="M80 80C63 78 53 73 47 62C53 53 61 49 70 51C77 53 80 61 80 80Z" fill="#F2F1EE"/>
  <path d="M80 80C97 78 107 73 113 62C107 53 99 49 90 51C83 53 80 61 80 80Z" fill="#F2F1EE"/>
  <path d="M80 80C75 96 73 107 78 115C89 114 95 108 97 99C98 90 93 84 80 80Z" fill="#F2F1EE"/>
  <path d="M80 80C68 91 60 98 58 108C66 115 75 116 82 111C88 107 89 98 80 80Z" fill="#F2F1EE"/>
  <path d="M80 80C90 67 97 58 109 55C116 63 116 72 111 79C106 85 97 87 80 80Z" fill="#F2F1EE"/>
</svg>
