<svg width="96" height="96" viewBox="0 0 96 96" fill="none" xmlns="http://www.w3.org/2000/svg">
  <rect x="12" y="12" width="72" height="72" rx="18" fill="#F6F5F2"/>
  <circle cx="41" cy="41" r="6" fill="#111111"/>
  <path d="M41 41C31 38 24 35 19 30C22 24 27 22 32 23C38 24 40 30 41 41Z" fill="#111111"/>
  <path d="M41 41C50 38 57 35 63 30C60 24 55 22 50 23C44 24 42 30 41 41Z" fill="#111111"/>
  <path d="M41 41C39 50 38 57 40 65C46 65 50 61 52 56C53 50 50 45 41 41Z" fill="#111111"/>
  <path d="M56 58L68 70" stroke="#111111" stroke-width="5" stroke-linecap="round"/>
  <path d="M63 56L70 63" stroke="#111111" stroke-width="5" stroke-linecap="round"/>
</svg>
