<svg xmlns="http://www.w3.org/2000/svg" viewBox="0 0 220 220">
  <rect width="220" height="220" rx="24" fill="#fbf7ef"/>
  <rect x="40" y="34" width="140" height="152" rx="10" fill="#f4f0e8" stroke="#1f1f1f" stroke-width="5"/>
  <rect x="52" y="46" width="116" height="128" rx="6" fill="#ebe1d3"/>
  <path d="M64 60c10 0 15 7 15 15s-5 15-15 15-15-7-15-15 5-15 15-15Zm52 22c10 0 15 7 15 15s-5 15-15 15-15-7-15-15 5-15 15-15Zm-20 48c10 0 15 7 15 15s-5 15-15 15-15-7-15-15 5-15 15-15Z" fill="none" stroke="#9f8767" stroke-width="4"/>
  <rect x="146" y="64" width="18" height="54" rx="6" fill="#d9cbb4" stroke="#1f1f1f" stroke-width="4"/>
  <path d="M144 70 124 88" stroke="#1f1f1f" stroke-width="5" stroke-linecap="round"/>
  <circle cx="88" cy="164" r="10" fill="#1f1f1f"/>
  <path d="M88 174v18M88 178l-10 12M88 178l10 12M88 162l18-10" stroke="#1f1f1f" stroke-width="5" stroke-linecap="round"/>
</svg>
